<svg xmlns="http://www.w3.org/2000/svg" viewBox="0 0 256 256" fill="none" shape-rendering="auto"><mask id="viewboxMask"><rect width="256" height="256" rx="128" ry="128" x="0" y="0" fill="#fff" /></mask><g mask="url(#viewboxMask)"><rect fill="#A33B3B" width="256" height="256" x="0" y="0" /><path d="m176 91.2.3.4c.3.1.7.4.9.7a81 81 0 0 1 8 27.7c4.7-1.6 11.8 2 11.8 10 0 4-.3 6.7-1 9-.6 2.3-1.6 4-3 5.8a9.4 9.4 0 0 1-7.7 3.3 71.7 71.7 0 0 1-26.1 49.2 51.6 51.6 0 0 1-37.2 11.4 43.6 43.6 0 0 1-30.2-18 114.1 114.1 0 0 1-19.5-42.3c-1.5.2-3.8 0-6-1.2-3-1.5-5.7-4.7-6.8-10.6-1-5.3-.4-10 1.7-13a8 8 0 0 1 4.3-3.1c1.5-.5 3.2-.5 5 0A42.2 42.2 0 0 1 96 84.3a90.3 90.3 0 0 1 26.3-7.5c19.1-2.5 40.5.5 53.7 14.4Z" fill="#ffffff"/><g stroke="#000" stroke-width="3" stroke-linecap="round" stroke-linejoin="round"><path d="M81.3 95c-17 17-15 61 11 96.5 15 20.5 42.2 25.1 66.7 6.5 34.5-26.2 30.5-83 18-106"/><path d="M186.4 121.4c3.6-1.9 10.7.8 10.7 8.7 0 7.8-1.1 10.8-3.7 14.2-2 2.6-5.6 3.2-8 2.7M69.7 121.9c-7.7-2.4-12.2 4-10.2 14.6 2.1 11.4 10.2 11.3 12.5 10.8"/></g><g transform="translate(112 123)"><path d="M24.3 5c-.8 5.3-1.2 16.3.3 22.3 3.6 14.1-1.5 17.5-3.2 17.5-5.3 0-6.5-4.7-7.7-18-1.5-16.5-1.6-16.3-3.7-21" stroke="#000" stroke-width="3" stroke-linecap="round" stroke-linejoin="round"/></g><g transform="translate(60 128)"></g><g transform="translate(95 180)"><path d="M13.6 13.8c4.7 4 13.5 6.5 22.5 5.4A25 25 0 0 0 54.9 8.5M10 16.5c1.6-1 4.8-3.7 5-6.6M53.1 6c1 1.6 3.8 4.8 6.6 5" stroke="#000" stroke-width="3" stroke-linecap="round" stroke-linejoin="round"/></g><g transform="translate(-1 -13)"><g stroke="#9747ff" stroke-width="3" stroke-linecap="round" stroke-linejoin="round"><path d="M81 106.1c11-18.5 70-33.3 96-5.8"/><path d="M81.3 106.5c22.1 16.9 56.8-10.4 61.2-18.7 0 18.1 19.2 24 34.5 12.9"/><path d="M130 91.6c-4 2.9-21.3 13.3-35.6 12.4M104.1 95.3c4-.5 13.1-2.2 18.1-4.4M147.4 91c1.1 2.5 5.5 8 13.7 8.5"/></g></g><g transform="translate(67 152)"><path d="M63.3 24.1c-4.7-1.7-22.6 3-28 1.5-5.3-1.5-8.6-4.8-6.6-7.3s2.5-1 3.3 0c.7.8 1.6 1.5 3 1.2 2-.4 3.3-1.7 2.2-3.7-1.3-2.5-10.8-2.5-11.7 0-.8 2.5-1.8 10.6 7.4 12.6 9.1 2 29-3.6 30.4-2.8 1.3.8 13.5 2.2 22.8 1.7 9.4-.6 19-7.2 16.6-11.5-2.5-4.4-14-2.9-11.8-.4.7.6 2.6 1.5 4 .4 1.6-1.5 4.4 1.2 0 5.3-3.4 3-24.1 6-29.6 3" stroke="#000" stroke-width="3" stroke-linecap="round" stroke-linejoin="round"/></g><g transform="translate(71 102)"><g stroke="#000" stroke-width="3" stroke-linecap="round" stroke-linejoin="round"><path d="M20.4 39.8c2.2-3.1 9-8.4 19-4"/><path d="M29 35.3c-1 .5-2.8 2.1-1.6 4.5 1.5 3 6.5.5 6-1.5-.4-1.6-2.1-2-3-2M17 24.6C21.8 23 33.2 21 40 27M71.4 24.6c4.8-1.7 16.2-3.6 23 2.3M68 28c6.4-.8 24.3 1.6 27 3.2 3 1.8 3.5 15.2 1.2 21.6-1.2 3.2-13.3 6.7-23.8 0-7.5-4.7-5.9-18.8-5-23.7"/><path d="M70.6 31c-.7 1.9-1.8 8.5-2.5 10.8l5-10.2c-.7 3.2-3.5 14.2-3.3 15.2.3 1.2 5.9-15.3 6.5-15.2.6 0-4.4 16.9-4.4 17.9s5.8-17.2 6.7-17.2c.9 0-4.4 17.9-3.8 18.8.6.9 5.2-17.3 6-18.2C81.4 32 76.1 53 77 53c.8 0 6.1-21 6.9-19 .7 2-5.1 22-3.2 20.3 2-1.6 5.6-21.8 7-20.3 1.5 1.5-4.4 20.8-3.2 20.3C85.8 53.8 90 35 90.6 35c.6 0-2.4 20.8-1.8 19.4l5-19.4c.3-1.2 0 3 0 6.9-.1 3-2.2 10.5-2.5 12.5l4.4-14.6c0 2.3 0 7.6-.3 10.1-.3 2.6-.8 3.7-1 4M6 3a253.7 253.7 0 0 0 58.6 26c3 .8 28 4.5 32 2.3 3.3-1.7 11.2-14 13-16"/></g></g></g></svg>