<svg xmlns="http://www.w3.org/2000/svg" viewBox="0 0 256 256" fill="none" shape-rendering="auto"><mask id="viewboxMask"><rect width="256" height="256" rx="128" ry="128" x="0" y="0" fill="#fff" /></mask><g mask="url(#viewboxMask)"><rect fill="#20808D" width="256" height="256" x="0" y="0" /><path d="M73.3 106.5c2-5.5 4-9.8 5.4-12.2-.1-.4 0-.8.1-1.1 3-4.9 9-9.3 16.4-12.9a90.7 90.7 0 0 1 26.3-7.5c19.2-2.5 40.7.5 53.9 14.4.2.3.4.6.4 1 1 1.1 2.2 3.2 3.6 6a109 109 0 0 1 4.4 10.2c1.4-.5 3-.7 4.6-.5a7 7 0 0 1 5.4 3.3c2 3.5 2.9 10 1.6 15.8a6.7 6.7 0 0 1-2.6 4.2 6 6 0 0 1-2.3 1c.5 2.8 1 5.6 1.3 8.5 2.8 23.3-1.3 49.6-26 62.6-23.6 12.4-47 16-65.6 12.3-18.7-3.8-32.6-15-36.7-32.5-3.2-13.5-1.3-31 2.2-46.7-1.5-.3-3-1.4-3.9-3-1.3-2.1-2-5.2-1.7-9.2.5-6.2 2.1-10.6 4.8-12.8a7 7 0 0 1 4.6-1.8 9 9 0 0 1 3.8.9Z" fill="#ffffff"/><g stroke="#000" stroke-width="3" stroke-linecap="round" stroke-linejoin="round"><path d="M79 93.7c-6 10-22.2 57.6-15.5 86.4 8.1 34.4 54.6 44.9 102.1 19.7C214.3 174 182.2 95.5 175.3 88"/><path d="M184.3 105.4c2.6-1.1 7.4-1.3 9.3 2 1.8 3.2 2.7 9.3 1.4 15.1-.7 3.3-3 4.3-5 4.3M72.5 107.8c-5.9-3.5-11.4-.2-12.4 12.2-.7 7.9 2.9 11.4 5.4 11"/></g><g transform="translate(116 120)"><path d="M20.8 8c2.7 8 7.6 25.3 5.8 29.4-2.1 5-5.4-2.3-5.4 3.5-1 2.8-3.8 3.2-5.1-1.6-1.3-4.7-5.2 3.5-6.5 1.6-3.6-1.6-.7-7.1 1.2-8.9" stroke="#000" stroke-width="3" stroke-linecap="round" stroke-linejoin="round"/></g><g transform="translate(57 132)"></g><g transform="translate(86 184)"><path d="M4 14.8s5.7-2.8 7.1-7.6M12.2 9c.2.8-7 9.3-7 9.3M14.2 8.6C13.7 12.7 9 18.9 9 18.9M11.6 20s5.3-4.8 5.8-10.3M19.6 9.4c0 3.5-1.7 11.2-1.7 11.2M45.6 7.7V20M18.7 20.2s4.2-5.3 4.2-9.6M49.2 18.2s-3-6.2-3-10.6M25.3 10.2c.3 2.4-2.9 9.8-2.9 9.8M55.5 6.9c.3 2.3 5.4 8.3 5.4 8.3M49.2 8a50 50 0 0 0 4.8 9.8M27.7 10c-.6 4-1.3 10.7-1.3 10.7M50.8 7.3l6.4 9.2M30 9.9c.6 2.8.8 8.6 3.7 10.6M58.5 7.3c1.5 2.3 4.4 5.9 8.2 6.8M34 9c0 1.3-1.8 5.9 1 11M40 20.5S35 14.3 35 9M37.5 8.6c0 3.8 6.1 12 6.1 12M44.5 20c-.6-2-3.8-9.3-3.4-12.5" stroke="#000" stroke-width="3" stroke-linecap="round" stroke-linejoin="round"/></g><g transform="translate(-2 -17)"><g stroke="#f24e1e" stroke-linecap="round" stroke-linejoin="round"><path d="M80.8 109 50 83.4C56 73 85.7 50 103.4 50c22 0 18.7 14.3 27 14.3 12.6 0 11.1-3 19.6-12.2 6.7-7.4 43.3 6.8 66 17.3l-39.2 34.3c-6.3-3.4-30.4-8.2-47.9-8.2-17 0-40.4 8.2-48.1 13.4Z" stroke-width="3"/><path d="M159 63c-1 8.5-3 29.7-3 33.2 0 3.9-5-26.5-5.8-28.4l-1.5 27-3.9-24.5-2 24.4-4.7-24-.6 21-6.5-21.4-2.4 21.4-4.5-21.4-1.7 21.4-5.8-23.2L119 93l-14.2-31.4 8.4 33.1L109 87 96 63l8.7 34.3L89.5 66l9.1 33.6-17.2-29.2 8.1 27-14.6-22L88 102.7 73.2 80.5l10.5 25-17-25 6.5 20-9.8-14.7m98.4 10.4 5.4-31.3v33.8l8.2-30.2-1.7 26.2 7.8-24-6.1 29.8 11.1-28.2-1.5 19.4 7.8-17.5v9.3l5.5-6" stroke-width="6"/><path d="M57.2 87.5c10.1-9.7 33.3-29.2 45.2-29.7 11.9-.6 5 5.3 19 12l22.4-2.2c7.6-2.9 10-11 18.3-8 8.4 3 26.1 11.7 43 17.3" stroke-width="3"/></g></g><g transform="translate(71 151)"></g><g transform="translate(71 89)"><g stroke="#000" stroke-width="3" stroke-linecap="round" stroke-linejoin="round"><path d="M34.8 27.8c3.3.6 11-.1 14.7-7.9M65.2 15c.5 2.7 2.7 8.5 7.4 10.8 4.6 2.3 8.8 2.3 10.3 2M21.2 40.5a134 134 0 0 1 27.1-5M21 42.7c6.8-1.3 20.5-4.5 25.2-5.2M67.3 34.8c7.1-1.3 22.3 2.4 26.3 4.1"/><path d="M66.7 35.2c7.1-1.2 20.6 3.7 24.6 5.5"/><path d="M66.5 36.1c7-1.3 21.6 4.9 25.6 6.7"/><path d="M66.5 37.5c7-1.3 21.6 5 25.6 6.9M25 41.3c6.5-2.3 20.5-6.6 24-5.2M24 45c6.6-2.3 20.3-6.2 24-7"/></g></g></g></svg>