<svg xmlns="http://www.w3.org/2000/svg" viewBox="0 0 100 100" fill="none" shape-rendering="auto"><mask id="viewboxMask"><rect width="100" height="100" rx="50" ry="50" x="0" y="0" fill="#fff" /></mask><g mask="url(#viewboxMask)"><rect fill="#5A7D2A" width="100" height="100" x="0" y="0" /><g transform="matrix(1.2 0 0 1.2 -10 -10)"><g transform="translate(9, 33) rotate(119 50 50)"><path d="M0 0h100v100H0V0Z" fill="#69d2e7"/></g></g><g transform="matrix(.8 0 0 .8 10 10)"><g transform="translate(-35, -29) rotate(-138 50 50)"><path d="m50 7 50 86.6H0L50 7Z" fill="#0a5b83"/></g></g><g transform="matrix(.4 0 0 .4 30 30)"><g transform="translate(18, -25) rotate(-85 50 50)"><path fill="#f88c49" d="M45-150h10v400H45z"/></g></g></g></svg>